<svg xmlns="http://www.w3.org/2000/svg" xmlns:xlink="http://www.w3.org/1999/xlink" viewBox="0 0 448.81 111.53"><defs><style>.cls-1{fill:#286d93;}.cls-2{fill:url(#linear-gradient);}.cls-3{fill:url(#linear-gradient-2);}.cls-4{fill:url(#linear-gradient-3);}.cls-5{fill:url(#linear-gradient-4);}.cls-6{fill:url(#linear-gradient-5);}.cls-7{fill:url(#linear-gradient-6);}.cls-8{fill:url(#linear-gradient-7);}.cls-9{fill:#4ac8f5;}</style><linearGradient id="linear-gradient" x1="11.87" y1="60.47" x2="89.67" y2="60.47" gradientUnits="userSpaceOnUse"><stop offset="0" stop-color="#ee3990"/><stop offset="1" stop-color="#f15a29"/></linearGradient><linearGradient id="linear-gradient-2" x1="109.85" y1="70.07" x2="193.37" y2="-93.49" xlink:href="#linear-gradient"/><linearGradient id="linear-gradient-3" x1="154.35" y1="92.8" x2="237.88" y2="-70.76" xlink:href="#linear-gradient"/><linearGradient id="linear-gradient-4" x1="204.37" y1="118.34" x2="287.89" y2="-45.23" xlink:href="#linear-gradient"/><linearGradient id="linear-gradient-5" x1="260.33" y1="146.91" x2="343.85" y2="-16.65" xlink:href="#linear-gradient"/><linearGradient id="linear-gradient-6" x1="295.35" y1="164.8" x2="378.88" y2="1.24" xlink:href="#linear-gradient"/><linearGradient id="linear-gradient-7" x1="347.13" y1="191.24" x2="430.65" y2="27.67" xlink:href="#linear-gradient"/></defs><title>inkdrp-full-color</title><g id="Layer_2" data-name="Layer 2"><g id="Layer_1-2" data-name="Layer 1"><path class="cls-1" d="M12.16,90.89S6.9,65,40.81,49.39c31.52-14.49,15.3-36.88,12.85-40l-.3-.37L44.92,0,14.57,32.57S-15.88,62.66,11.26,94.7a38.81,38.81,0,0,0,3.81,4.07A10.37,10.37,0,0,1,12.16,90.89Z"/><path class="cls-2" d="M80,92.78c-10.11,12.64-26.64,5.9-26.64,5.9S34.07,89.41,57.88,66c22.36-22-1.28-52.94-4.22-56.61,2.45,3.09,18.67,25.48-12.85,40C6.9,65,12.16,90.89,12.16,90.89a10.37,10.37,0,0,0,2.91,7.88c.33.32.68.64,1.05,1a56.53,56.53,0,0,0,13.5,8.64,39.35,39.35,0,0,0,15.3,3.15,38.69,38.69,0,0,0,8.73-1c7.66-2,16.09-6.66,24.94-15.82a53.56,53.56,0,0,0,5.9-8.43A52.38,52.38,0,0,1,80,92.78Z"/><rect class="cls-3" x="110.68" y="18.36" width="12.68" height="75.34"/><path class="cls-4" d="M186,43.64a29,29,0,0,0-3.05-2,32.88,32.88,0,0,0-17.09-4.4h-.18c-1.2-.1-2.42-.16-3.69-.16a32.87,32.87,0,0,0-17.08,4.4,29.54,29.54,0,0,0-3,2.05q-7.76,5.9-8.28,14c0,.4,0,.8,0,1.2V93.55h0v.15H144.9V58.88q0-5.7,5.67-9.67a23,23,0,0,1,13.52-4,23.62,23.62,0,0,1,10.44,2.22l.08.05c.44.22.88.45,1.31.71.24.14.46.29.69.44s.48.3.72.47.41.32.62.47.49.38.71.57l.41.38c.25.23.51.46.73.7l.28.33c.24.26.47.53.68.8.09.12.17.25.25.37.18.27.37.53.52.79s.22.44.33.66.19.36.26.54a10.23,10.23,0,0,1,.78,4V93.55h0v.15h11.35V58.88c0-.41,0-.81,0-1.2Q193.73,49.52,186,43.64Z"/><path class="cls-5" d="M266.06,38.18H249.54l-28.14,20a3.11,3.11,0,0,1-4.91-2.53V18.36H205.14V93.7h11.35V73.5l8.07-5.68a6.12,6.12,0,0,1,8.22,1.1L253.37,93.7h13.86L237.52,58.38Z"/><path class="cls-6" d="M316.63,40a2.67,2.67,0,0,1-4.24,2.14A24.44,24.44,0,0,0,308,39.67a27.43,27.43,0,0,0-11.68-2.48q-13.84,0-22.86,8.68a26,26,0,0,0-8.68,19.57,27.32,27.32,0,0,0,8.49,20.08q9,9,23,9A25.87,25.87,0,0,0,308,91.71a24.29,24.29,0,0,0,8.49-6.94l.13,8.93H328V18.36H316.63Zm-5.17,40q-5.67,6.69-15.19,6.69t-15.18-6.69a21.74,21.74,0,0,1-5-14.5,21,21,0,0,1,5.17-14.25q5.67-6.44,15-6.44a19.58,19.58,0,0,1,15.19,6.44,21,21,0,0,1,5.17,14.25A21.31,21.31,0,0,1,311.46,79.94Z"/><path class="cls-7" d="M358.86,40a35.73,35.73,0,0,0-4.73,2.3A2.79,2.79,0,0,1,349.85,40v-1.8H338.5V93.7h11.35V64.5q0-7.7,6.51-13.17a24.27,24.27,0,0,1,16.35-5.71h5V37.19h-5A32.67,32.67,0,0,0,358.86,40Z"/><path class="cls-8" d="M440.16,44.87q-9.17-8.68-23-8.68a27.29,27.29,0,0,0-11.65,2.48,23.84,23.84,0,0,0-5.09,2.92,2.22,2.22,0,0,1-3.55-1.78V37.18H385.56v74.35h11.35V83.77a21.22,21.22,0,0,0,8.65,6.45A27.28,27.28,0,0,0,417.2,92.7q13.82,0,23-8.68a26.47,26.47,0,0,0,0-39.15Zm-7.87,33.82q-5.67,6.45-15,6.45a19.55,19.55,0,0,1-15.19-6.45,21,21,0,0,1-5.17-14.25,21,21,0,0,1,5.17-14.25,19.58,19.58,0,0,1,15.19-6.44q9.35,0,15,6.44a21,21,0,0,1,5.17,14.25A21,21,0,0,1,432.29,78.69Z"/><path class="cls-9" d="M70.13,27.25l-1.44-1.57h0L53.36,9.05h0l.3.37C56.6,13.09,80.24,44.06,57.88,66c-23.81,23.38-4.52,32.65-4.52,32.65s16.53,6.74,26.64-5.9a52.38,52.38,0,0,0,4.49-6.51l.28-.49a44.71,44.71,0,0,0,3-7.41C93.76,55.94,75.5,33.29,70.13,27.25Z"/></g></g></svg>