<?xml version="1.0" encoding="UTF-8"?>
<svg width="392px" height="332px" viewBox="0 0 392 332" version="1.1" xmlns="http://www.w3.org/2000/svg" xmlns:xlink="http://www.w3.org/1999/xlink">
    <!-- Generator: Sketch 50.2 (55047) - http://www.bohemiancoding.com/sketch -->
    <title>business-cards@2x</title>
    <desc>Created with Sketch.</desc>
    <defs>
        <rect id="path-1" x="0" y="0" width="366" height="306" rx="10"></rect>
        <filter x="-4.9%" y="-5.6%" width="112.0%" height="114.4%" filterUnits="objectBoundingBox" id="filter-2">
            <feOffset dx="4" dy="5" in="SourceAlpha" result="shadowOffsetOuter1"></feOffset>
            <feGaussianBlur stdDeviation="6.5" in="shadowOffsetOuter1" result="shadowBlurOuter1"></feGaussianBlur>
            <feColorMatrix values="0 0 0 0 0.0431372549   0 0 0 0 0.0470588235   0 0 0 0 0.0705882353  0 0 0 0.4 0" type="matrix" in="shadowBlurOuter1"></feColorMatrix>
        </filter>
        <rect id="path-3" x="0" y="0" width="255" height="137" rx="7"></rect>
        <linearGradient x1="49.9639554%" y1="-8.89069913%" x2="49.9639554%" y2="103.764728%" id="linearGradient-5">
            <stop stop-color="#FEBB00" offset="0%"></stop>
            <stop stop-color="#FF3693" offset="43%"></stop>
            <stop stop-color="#FF1A4E" offset="100%"></stop>
        </linearGradient>
    </defs>
    <g id="cartoon-design-dark" stroke="none" stroke-width="1" fill="none" fill-rule="evenodd">
        <g id="home" transform="translate(-351.000000, -1608.000000)">
            <g id="business-cards" transform="translate(360.000000, 1616.000000)">
                <g id="Rectangle-Copy-9">
                    <use fill="black" fill-opacity="1" filter="url(#filter-2)" xlink:href="#path-1"></use>
                    <use fill="#0D101B" fill-rule="evenodd" xlink:href="#path-1"></use>
                </g>
                <g id="Group-9" transform="translate(56.000000, 85.000000)">
                    <g id="Rectangle-3-Copy-3">
                        <mask id="mask-4" fill="white">
                            <use xlink:href="#path-3"></use>
                        </mask>
                        <use id="Mask" fill="#286D92" xlink:href="#path-3"></use>
                        <polygon id="Rectangle-3" fill="#2F4368" mask="url(#mask-4)" points="-19 -7 85.1686635 -7 166 156 -19 156"></polygon>
                    </g>
                    <g id="Group-7" transform="translate(25.000000, 83.000000)" fill="#191B27" fill-rule="nonzero">
                        <path d="M3,6 C1.34314575,6 0,4.65685425 0,3 C0,1.34314575 1.34314575,0 3,0 L201.012626,0 C202.66948,0 204.012626,1.34314575 204.012626,3 C204.012626,4.65685425 202.66948,6 201.012626,6 L3,6 Z" id="Line"></path>
                        <path d="M3,19 C1.34314575,19 0,17.6568542 0,16 C0,14.3431458 1.34314575,13 3,13 L201.012626,13 C202.66948,13 204.012626,14.3431458 204.012626,16 C204.012626,17.6568542 202.66948,19 201.012626,19 L3,19 Z" id="Line-Copy"></path>
                        <path d="M2.16177789,32 C0.967860928,32 0,30.6568542 0,29 C0,27.3431458 0.967860928,26 2.16177789,26 L144.848217,26 C146.042134,26 147.009995,27.3431458 147.009995,29 C147.009995,30.6568542 146.042134,32 144.848217,32 L2.16177789,32 Z" id="Line-Copy-2"></path>
                    </g>
                    <polygon id="Triangle" fill="url(#linearGradient-5)" points="44.5 19 64 46 25 46"></polygon>
                </g>
            </g>
        </g>
    </g>
</svg>