<?xml version="1.0" encoding="UTF-8"?>
<svg width="392px" height="332px" viewBox="0 0 392 332" version="1.1" xmlns="http://www.w3.org/2000/svg" xmlns:xlink="http://www.w3.org/1999/xlink">
    <!-- Generator: Sketch 50.2 (55047) - http://www.bohemiancoding.com/sketch -->
    <title>menus@2x</title>
    <desc>Created with Sketch.</desc>
    <defs>
        <rect id="path-1" x="0" y="0" width="366" height="306" rx="10"></rect>
        <filter x="-4.9%" y="-5.6%" width="112.0%" height="114.4%" filterUnits="objectBoundingBox" id="filter-2">
            <feOffset dx="4" dy="5" in="SourceAlpha" result="shadowOffsetOuter1"></feOffset>
            <feGaussianBlur stdDeviation="6.5" in="shadowOffsetOuter1" result="shadowBlurOuter1"></feGaussianBlur>
            <feColorMatrix values="0 0 0 0 0.0431372549   0 0 0 0 0.0470588235   0 0 0 0 0.0705882353  0 0 0 0.4 0" type="matrix" in="shadowBlurOuter1"></feColorMatrix>
        </filter>
        <rect id="path-3" x="0" y="0" width="229.365079" height="168.90625" rx="6.3"></rect>
    </defs>
    <g id="cartoon-design-dark" stroke="none" stroke-width="1" fill="none" fill-rule="evenodd">
        <g id="home" transform="translate(-768.000000, -1608.000000)">
            <g id="menus" transform="translate(777.000000, 1616.000000)">
                <g id="Rectangle-Copy-10">
                    <use fill="black" fill-opacity="1" filter="url(#filter-2)" xlink:href="#path-1"></use>
                    <use fill="#0D101B" fill-rule="evenodd" xlink:href="#path-1"></use>
                </g>
                <g id="Group-8" transform="translate(94.000000, 38.000000)">
                    <g id="Rectangle-3-Copy-4" transform="translate(85.000000, 115.000000) rotate(90.000000) translate(-85.000000, -115.000000) translate(-29.682540, 30.546875)">
                        <mask id="mask-4" fill="white">
                            <use xlink:href="#path-3"></use>
                        </mask>
                        <use id="Mask" fill="#286D92" xlink:href="#path-3"></use>
                        <polygon id="Rectangle-3" fill="#2F4368" mask="url(#mask-4)" points="-75.5555556 -8.984375 18.1411259 -8.984375 90.8465608 192.265625 -75.5555556 192.265625"></polygon>
                    </g>
                    <g id="Group-7-Copy" transform="translate(15.291005, 86.250000)" fill="#191B27" fill-rule="nonzero">
                        <path d="M2.06336436,5.390625 C0.92379969,5.390625 0,4.18389249 0,2.6953125 C0,1.20673251 0.92379969,0 2.06336436,0 L138.254096,0 C139.393661,0 140.31746,1.20673251 140.31746,2.6953125 C140.31746,4.18389249 139.393661,5.390625 138.254096,5.390625 L2.06336436,5.390625 Z" id="Line"></path>
                        <path d="M2.06336436,17.0703125 C0.92379969,17.0703125 0,15.86358 0,14.375 C0,12.88642 0.92379969,11.6796875 2.06336436,11.6796875 L138.254096,11.6796875 C139.393661,11.6796875 140.31746,12.88642 140.31746,14.375 C140.31746,15.86358 139.393661,17.0703125 138.254096,17.0703125 L2.06336436,17.0703125 Z" id="Line-Copy"></path>
                        <path d="M1.49461649,28.75 C0.669162596,28.75 0,27.5432675 0,26.0546875 C0,24.5661075 0.669162596,23.359375 1.49461649,23.359375 L100.145595,23.359375 C100.971049,23.359375 101.640212,24.5661075 101.640212,26.0546875 C101.640212,27.5432675 100.971049,28.75 100.145595,28.75 L1.49461649,28.75 Z" id="Line-Copy-2"></path>
                    </g>
                    <g id="Group-7-Copy-2" transform="translate(15.291005, 131.171875)" fill="#191B27" fill-rule="nonzero">
                        <path d="M2.06336436,5.390625 C0.92379969,5.390625 0,4.18389249 0,2.6953125 C0,1.20673251 0.92379969,0 2.06336436,0 L138.254096,0 C139.393661,0 140.31746,1.20673251 140.31746,2.6953125 C140.31746,4.18389249 139.393661,5.390625 138.254096,5.390625 L2.06336436,5.390625 Z" id="Line"></path>
                        <path d="M2.06336436,17.0703125 C0.92379969,17.0703125 0,15.86358 0,14.375 C0,12.88642 0.92379969,11.6796875 2.06336436,11.6796875 L138.254096,11.6796875 C139.393661,11.6796875 140.31746,12.88642 140.31746,14.375 C140.31746,15.86358 139.393661,17.0703125 138.254096,17.0703125 L2.06336436,17.0703125 Z" id="Line-Copy"></path>
                        <path d="M1.49461649,28.75 C0.669162596,28.75 0,27.5432675 0,26.0546875 C0,24.5661075 0.669162596,23.359375 1.49461649,23.359375 L100.145595,23.359375 C100.971049,23.359375 101.640212,24.5661075 101.640212,26.0546875 C101.640212,27.5432675 100.971049,28.75 100.145595,28.75 L1.49461649,28.75 Z" id="Line-Copy-2"></path>
                    </g>
                    <g id="Group-7-Copy-3" transform="translate(15.291005, 175.195312)" fill="#191B27" fill-rule="nonzero">
                        <path d="M2.06336436,5.390625 C0.92379969,5.390625 0,4.18389249 0,2.6953125 C0,1.20673251 0.92379969,0 2.06336436,0 L138.254096,0 C139.393661,0 140.31746,1.20673251 140.31746,2.6953125 C140.31746,4.18389249 139.393661,5.390625 138.254096,5.390625 L2.06336436,5.390625 Z" id="Line"></path>
                        <path d="M2.06336436,17.0703125 C0.92379969,17.0703125 0,15.86358 0,14.375 C0,12.88642 0.92379969,11.6796875 2.06336436,11.6796875 L138.254096,11.6796875 C139.393661,11.6796875 140.31746,12.88642 140.31746,14.375 C140.31746,15.86358 139.393661,17.0703125 138.254096,17.0703125 L2.06336436,17.0703125 Z" id="Line-Copy"></path>
                        <path d="M1.49461649,28.75 C0.669162596,28.75 0,27.5432675 0,26.0546875 C0,24.5661075 0.669162596,23.359375 1.49461649,23.359375 L100.145595,23.359375 C100.971049,23.359375 101.640212,24.5661075 101.640212,26.0546875 C101.640212,27.5432675 100.971049,28.75 100.145595,28.75 L1.49461649,28.75 Z" id="Line-Copy-2"></path>
                    </g>
                </g>
            </g>
        </g>
    </g>
</svg>