<?xml version="1.0" encoding="UTF-8"?>
<svg width="344px" height="295px" viewBox="0 0 344 295" version="1.1" xmlns="http://www.w3.org/2000/svg" xmlns:xlink="http://www.w3.org/1999/xlink">
    <!-- Generator: Sketch 50.2 (55047) - http://www.bohemiancoding.com/sketch -->
    <title>menus</title>
    <desc>Created with Sketch.</desc>
    <defs>
        <rect id="path-1" x="0" y="0" width="318" height="269" rx="10"></rect>
        <filter x="-5.7%" y="-6.3%" width="113.8%" height="116.4%" filterUnits="objectBoundingBox" id="filter-2">
            <feOffset dx="4" dy="5" in="SourceAlpha" result="shadowOffsetOuter1"></feOffset>
            <feGaussianBlur stdDeviation="6.5" in="shadowOffsetOuter1" result="shadowBlurOuter1"></feGaussianBlur>
            <feColorMatrix values="0 0 0 0 0.0431372549   0 0 0 0 0.0470588235   0 0 0 0 0.0705882353  0 0 0 0.4 0" type="matrix" in="shadowBlurOuter1"></feColorMatrix>
        </filter>
        <rect id="path-3" x="0" y="0" width="199.284413" height="148.482945" rx="6.3"></rect>
    </defs>
    <g id="cartoon-design-dark" stroke="none" stroke-width="1" fill="none" fill-rule="evenodd">
        <g id="home" transform="translate(-768.000000, -1608.000000)">
            <g id="menus" transform="translate(777.000000, 1616.000000)">
                <g id="Rectangle-Copy-10">
                    <use fill="black" fill-opacity="1" filter="url(#filter-2)" xlink:href="#path-1"></use>
                    <use fill="#0D101B" fill-rule="evenodd" xlink:href="#path-1"></use>
                </g>
                <g id="Group-8" transform="translate(81.672131, 33.405229)">
                    <g id="Rectangle-3-Copy-4" transform="translate(73.852459, 101.094771) rotate(90.000000) translate(-73.852459, -101.094771) translate(-25.789748, 26.853299)">
                        <mask id="mask-4" fill="white">
                            <use xlink:href="#path-3"></use>
                        </mask>
                        <use id="Mask" fill="#286D92" xlink:href="#path-3"></use>
                        <polygon id="Rectangle-3" fill="#2F4368" mask="url(#mask-4)" points="-65.6466302 -7.898029 15.7619619 -7.898029 78.9322578 169.017821 -65.6466302 169.017821"></polygon>
                    </g>
                    <g id="Group-7-Copy" transform="translate(13.285628, 75.821078)" fill="#191B27" fill-rule="nonzero">
                        <path d="M1.7927592,4.7388174 C0.802645632,4.7388174 0,3.67799699 0,2.3694087 C0,1.06082041 0.802645632,0 1.7927592,0 L120.122411,0 C121.112525,0 121.91517,1.06082041 121.91517,2.3694087 C121.91517,3.67799699 121.112525,4.7388174 120.122411,4.7388174 L1.7927592,4.7388174 Z" id="Line"></path>
                        <path d="M1.7927592,15.0062551 C0.802645632,15.0062551 0,13.9454347 0,12.6368464 C0,11.3282581 0.802645632,10.2674377 1.7927592,10.2674377 L120.122411,10.2674377 C121.112525,10.2674377 121.91517,11.3282581 121.91517,12.6368464 C121.91517,13.9454347 121.112525,15.0062551 120.122411,15.0062551 L1.7927592,15.0062551 Z" id="Line-Copy"></path>
                        <path d="M1.29860121,25.2736928 C0.581403567,25.2736928 0,24.2128724 0,22.9042841 C0,21.5956958 0.581403567,20.5348754 1.29860121,20.5348754 L87.0117466,20.5348754 C87.7289443,20.5348754 88.3103478,21.5956958 88.3103478,22.9042841 C88.3103478,24.2128724 87.7289443,25.2736928 87.0117466,25.2736928 L1.29860121,25.2736928 Z" id="Line-Copy-2"></path>
                    </g>
                    <g id="Group-7-Copy-2" transform="translate(13.285628, 115.311223)" fill="#191B27" fill-rule="nonzero">
                        <path d="M1.7927592,4.7388174 C0.802645632,4.7388174 0,3.67799699 0,2.3694087 C0,1.06082041 0.802645632,0 1.7927592,0 L120.122411,0 C121.112525,0 121.91517,1.06082041 121.91517,2.3694087 C121.91517,3.67799699 121.112525,4.7388174 120.122411,4.7388174 L1.7927592,4.7388174 Z" id="Line"></path>
                        <path d="M1.7927592,15.0062551 C0.802645632,15.0062551 0,13.9454347 0,12.6368464 C0,11.3282581 0.802645632,10.2674377 1.7927592,10.2674377 L120.122411,10.2674377 C121.112525,10.2674377 121.91517,11.3282581 121.91517,12.6368464 C121.91517,13.9454347 121.112525,15.0062551 120.122411,15.0062551 L1.7927592,15.0062551 Z" id="Line-Copy"></path>
                        <path d="M1.29860121,25.2736928 C0.581403567,25.2736928 0,24.2128724 0,22.9042841 C0,21.5956958 0.581403567,20.5348754 1.29860121,20.5348754 L87.0117466,20.5348754 C87.7289443,20.5348754 88.3103478,21.5956958 88.3103478,22.9042841 C88.3103478,24.2128724 87.7289443,25.2736928 87.0117466,25.2736928 L1.29860121,25.2736928 Z" id="Line-Copy-2"></path>
                    </g>
                    <g id="Group-7-Copy-3" transform="translate(13.285628, 154.011566)" fill="#191B27" fill-rule="nonzero">
                        <path d="M1.7927592,4.7388174 C0.802645632,4.7388174 0,3.67799699 0,2.3694087 C0,1.06082041 0.802645632,0 1.7927592,0 L120.122411,0 C121.112525,0 121.91517,1.06082041 121.91517,2.3694087 C121.91517,3.67799699 121.112525,4.7388174 120.122411,4.7388174 L1.7927592,4.7388174 Z" id="Line"></path>
                        <path d="M1.7927592,15.0062551 C0.802645632,15.0062551 0,13.9454347 0,12.6368464 C0,11.3282581 0.802645632,10.2674377 1.7927592,10.2674377 L120.122411,10.2674377 C121.112525,10.2674377 121.91517,11.3282581 121.91517,12.6368464 C121.91517,13.9454347 121.112525,15.0062551 120.122411,15.0062551 L1.7927592,15.0062551 Z" id="Line-Copy"></path>
                        <path d="M1.29860121,25.2736928 C0.581403567,25.2736928 0,24.2128724 0,22.9042841 C0,21.5956958 0.581403567,20.5348754 1.29860121,20.5348754 L87.0117466,20.5348754 C87.7289443,20.5348754 88.3103478,21.5956958 88.3103478,22.9042841 C88.3103478,24.2128724 87.7289443,25.2736928 87.0117466,25.2736928 L1.29860121,25.2736928 Z" id="Line-Copy-2"></path>
                    </g>
                </g>
            </g>
        </g>
    </g>
</svg>