<?xml version="1.0" encoding="UTF-8"?>
<svg width="392px" height="332px" viewBox="0 0 392 332" version="1.1" xmlns="http://www.w3.org/2000/svg" xmlns:xlink="http://www.w3.org/1999/xlink">
    <!-- Generator: Sketch 50.2 (55047) - http://www.bohemiancoding.com/sketch -->
    <title>posters@2x</title>
    <desc>Created with Sketch.</desc>
    <defs>
        <rect id="path-1" x="0" y="0" width="366" height="306" rx="10"></rect>
        <filter x="-4.9%" y="-5.6%" width="112.0%" height="114.4%" filterUnits="objectBoundingBox" id="filter-2">
            <feOffset dx="4" dy="5" in="SourceAlpha" result="shadowOffsetOuter1"></feOffset>
            <feGaussianBlur stdDeviation="6.5" in="shadowOffsetOuter1" result="shadowBlurOuter1"></feGaussianBlur>
            <feColorMatrix values="0 0 0 0 0.0431372549   0 0 0 0 0.0470588235   0 0 0 0 0.0705882353  0 0 0 0.4 0" type="matrix" in="shadowBlurOuter1"></feColorMatrix>
        </filter>
        <path d="M6.3,5.70109349e-14 L203.579745,6.22565737e-14 L203.579745,30.2717082 L229.228723,30.2717082 L229.228723,162.60625 C229.228723,166.085644 226.408117,168.90625 222.928723,168.90625 L6.3,168.90625 C2.82060608,168.90625 -2.2384324e-15,166.085644 -2.66453526e-15,162.60625 L0,6.3 C-4.26102863e-16,2.82060608 2.82060608,5.48180379e-14 6.3,5.41788836e-14 Z" id="path-3"></path>
        <linearGradient x1="100%" y1="-12.1059976%" x2="0%" y2="119.257726%" id="linearGradient-5">
            <stop stop-color="#FEBB00" offset="0%"></stop>
            <stop stop-color="#FF3693" offset="43%"></stop>
            <stop stop-color="#FF1A4E" offset="100%"></stop>
        </linearGradient>
    </defs>
    <g id="cartoon-design-dark" stroke="none" stroke-width="1" fill="none" fill-rule="evenodd">
        <g id="home" transform="translate(-1185.000000, -1608.000000)">
            <g id="posters" transform="translate(1194.000000, 1616.000000)">
                <g id="Rectangle-Copy-11">
                    <use fill="black" fill-opacity="1" filter="url(#filter-2)" xlink:href="#path-1"></use>
                    <use fill="#0D101B" fill-rule="evenodd" xlink:href="#path-1"></use>
                </g>
                <g id="Group-10" transform="translate(95.000000, 37.000000)">
                    <g id="Rectangle-3-Copy-3" transform="translate(84.500000, 116.000000) scale(1, -1) rotate(90.000000) translate(-84.500000, -116.000000) translate(-30.563830, 31.546875)">
                        <polygon id="Rectangle-5" fill="#2F4368" points="189.675532 5.68434189e-14 203.442272 8.23785484e-14 229.281144 30.6725767 189.675532 45.8203125"></polygon>
                        <mask id="mask-4" fill="white">
                            <use xlink:href="#path-3"></use>
                        </mask>
                        <use id="Mask" fill="#286D92" xlink:href="#path-3"></use>
                        <polygon id="Rectangle-3" fill="#2F4368" mask="url(#mask-4)" points="-75.5106383 -8.984375 18.1303412 -8.984375 90.7925532 192.265625 -75.5106383 192.265625"></polygon>
                    </g>
                    <g id="Group-7-Copy-4" transform="translate(14.382979, 54.906250)" fill="#191B27" fill-rule="nonzero">
                        <path d="M2.0621377,5.390625 C0.923250498,5.390625 0,4.18389249 0,2.6953125 C0,1.20673251 0.923250498,0 2.0621377,0 L138.171905,0 C139.310792,0 140.234043,1.20673251 140.234043,2.6953125 C140.234043,4.18389249 139.310792,5.390625 138.171905,5.390625 L2.0621377,5.390625 Z" id="Line-Copy"></path>
                        <path d="M1.49372795,17.0703125 C0.668764783,17.0703125 0,15.86358 0,14.375 C0,12.88642 0.668764783,11.6796875 1.49372795,11.6796875 L100.086059,11.6796875 C100.911022,11.6796875 101.579787,12.88642 101.579787,14.375 C101.579787,15.86358 100.911022,17.0703125 100.086059,17.0703125 L1.49372795,17.0703125 Z" id="Line-Copy-2"></path>
                    </g>
                    <ellipse id="Oval-2" fill="url(#linearGradient-5)" cx="124.952128" cy="185.179688" rx="29.6648936" ry="29.6484375"></ellipse>
                </g>
            </g>
        </g>
    </g>
</svg>