<?xml version="1.0" encoding="UTF-8"?>
<svg width="392px" height="332px" viewBox="0 0 392 332" version="1.1" xmlns="http://www.w3.org/2000/svg" xmlns:xlink="http://www.w3.org/1999/xlink">
    <!-- Generator: Sketch 50.2 (55047) - http://www.bohemiancoding.com/sketch -->
    <title>rackcard@2x</title>
    <desc>Created with Sketch.</desc>
    <defs>
        <rect id="path-1" x="0" y="0" width="366" height="306" rx="10"></rect>
        <filter x="-4.9%" y="-5.6%" width="112.0%" height="114.4%" filterUnits="objectBoundingBox" id="filter-2">
            <feOffset dx="4" dy="5" in="SourceAlpha" result="shadowOffsetOuter1"></feOffset>
            <feGaussianBlur stdDeviation="6.5" in="shadowOffsetOuter1" result="shadowBlurOuter1"></feGaussianBlur>
            <feColorMatrix values="0 0 0 0 0.0431372549   0 0 0 0 0.0470588235   0 0 0 0 0.0705882353  0 0 0 0.4 0" type="matrix" in="shadowBlurOuter1"></feColorMatrix>
        </filter>
        <path d="M7.98872934,1.13981176 L88.9887293,12.6966875 C92.4378206,13.1887952 95,16.1424875 95,19.6265082 L95,200.937647 C95,204.467677 92.3715819,207.445364 88.8688494,207.883516 L7.86884936,218.015696 C4.03275165,218.495549 0.533982919,215.774774 0.0541306672,211.938676 C0.0180785058,211.650463 2.70010623e-15,211.360286 2.66453526e-15,211.069827 L-1.77635684e-15,8.06963241 C-2.24980447e-15,4.20363917 3.13400675,1.06963241 7,1.06963241 C7.33082072,1.06963241 7.6612253,1.09308431 7.98872934,1.13981176 Z" id="path-3"></path>
        <linearGradient x1="49.9639554%" y1="-8.89069913%" x2="49.9639554%" y2="103.764728%" id="linearGradient-5">
            <stop stop-color="#FEBB00" offset="0%"></stop>
            <stop stop-color="#FF3693" offset="43%"></stop>
            <stop stop-color="#FF1A4E" offset="100%"></stop>
        </linearGradient>
    </defs>
    <g id="cartoon-design-dark" stroke="none" stroke-width="1" fill="none" fill-rule="evenodd">
        <g id="home" transform="translate(-1185.000000, -2574.000000)">
            <g id="rackcard" transform="translate(1194.000000, 2582.000000)">
                <g id="Rectangle-Copy-13">
                    <use fill="black" fill-opacity="1" filter="url(#filter-2)" xlink:href="#path-1"></use>
                    <use fill="#0D101B" fill-rule="evenodd" xlink:href="#path-1"></use>
                </g>
                <g id="Rectangle" transform="translate(136.000000, 36.000000)">
                    <mask id="mask-4" fill="white">
                        <use xlink:href="#path-3"></use>
                    </mask>
                    <use id="Mask" fill="#2F4368" xlink:href="#path-3"></use>
                    <path d="M10.0495042,9.86380049 L91.0495042,49.0665145 C93.4653793,50.2357597 95,52.6833999 95,55.3673497 L95,205.937647 C95,209.467677 92.3715819,212.445364 88.8688494,212.883516 L7.86884936,223.015696 C4.03275165,223.495549 0.533982919,220.774774 0.0541306672,216.938676 C0.0180785058,216.650463 -5.79878438e-16,216.360286 -1.77635684e-15,216.069827 L2.66453526e-15,16.1646357 C2.19108763e-15,12.2986424 3.13400675,9.16463568 7,9.16463568 C8.05623172,9.16463568 9.09876963,9.40366005 10.0495042,9.86380049 Z" fill="#286D92" mask="url(#mask-4)"></path>
                    <g id="Group-7-Copy-3" mask="url(#mask-4)" fill="#191B27" fill-rule="nonzero">
                        <g transform="translate(4.000000, 52.000000)">
                            <path d="M0.897003307,5 C0.40160206,5 0,3.88071187 0,2.5 C0,1.11928813 0.40160206,0 0.897003307,0 L60.1029967,0 C60.5983979,0 61,1.11928813 61,2.5 C61,3.88071187 60.5983979,5 60.1029967,5 L0.897003307,5 Z" id="Line"></path>
                            <path d="M0.897003307,17 C0.40160206,17 0,15.8807119 0,14.5 C0,13.1192881 0.40160206,12 0.897003307,12 L60.1029967,12 C60.5983979,12 61,13.1192881 61,14.5 C61,15.8807119 60.5983979,17 60.1029967,17 L0.897003307,17 Z" id="Line-Copy"></path>
                            <path d="M0.647018779,28 C0.289680174,28 0,26.8807119 0,25.5 C0,24.1192881 0.289680174,23 0.647018779,23 L43.3529812,23 C43.7103198,23 44,24.1192881 44,25.5 C44,26.8807119 43.7103198,28 43.3529812,28 L0.647018779,28 Z" id="Line-Copy-2"></path>
                        </g>
                    </g>
                    <g id="Group-7-Copy-5" mask="url(#mask-4)" fill="#191B27" fill-rule="nonzero">
                        <g transform="translate(4.000000, 89.000000)">
                            <path d="M0.897003307,5 C0.40160206,5 0,3.88071187 0,2.5 C0,1.11928813 0.40160206,0 0.897003307,0 L60.1029967,0 C60.5983979,0 61,1.11928813 61,2.5 C61,3.88071187 60.5983979,5 60.1029967,5 L0.897003307,5 Z" id="Line"></path>
                            <path d="M0.897003307,17 C0.40160206,17 0,15.8807119 0,14.5 C0,13.1192881 0.40160206,12 0.897003307,12 L60.1029967,12 C60.5983979,12 61,13.1192881 61,14.5 C61,15.8807119 60.5983979,17 60.1029967,17 L0.897003307,17 Z" id="Line-Copy"></path>
                            <path d="M0.647018779,28 C0.289680174,28 0,26.8807119 0,25.5 C0,24.1192881 0.289680174,23 0.647018779,23 L43.3529812,23 C43.7103198,23 44,24.1192881 44,25.5 C44,26.8807119 43.7103198,28 43.3529812,28 L0.647018779,28 Z" id="Line-Copy-2"></path>
                        </g>
                    </g>
                    <g id="Group-7-Copy-6" mask="url(#mask-4)" fill="#191B27" fill-rule="nonzero">
                        <g transform="translate(4.000000, 126.000000)">
                            <path d="M0.897003307,5 C0.40160206,5 0,3.88071187 0,2.5 C0,1.11928813 0.40160206,0 0.897003307,0 L60.1029967,0 C60.5983979,0 61,1.11928813 61,2.5 C61,3.88071187 60.5983979,5 60.1029967,5 L0.897003307,5 Z" id="Line"></path>
                            <path d="M0.897003307,17 C0.40160206,17 0,15.8807119 0,14.5 C0,13.1192881 0.40160206,12 0.897003307,12 L60.1029967,12 C60.5983979,12 61,13.1192881 61,14.5 C61,15.8807119 60.5983979,17 60.1029967,17 L0.897003307,17 Z" id="Line-Copy"></path>
                            <path d="M0.647018779,28 C0.289680174,28 0,26.8807119 0,25.5 C0,24.1192881 0.289680174,23 0.647018779,23 L43.3529812,23 C43.7103198,23 44,24.1192881 44,25.5 C44,26.8807119 43.7103198,28 43.3529812,28 L0.647018779,28 Z" id="Line-Copy-2"></path>
                        </g>
                    </g>
                    <ellipse id="Oval-2" fill="url(#linearGradient-5)" mask="url(#mask-4)" cx="103.5" cy="81" rx="30.5" ry="29"></ellipse>
                    <ellipse id="Oval-2-Copy" fill="#191B27" mask="url(#mask-4)" cx="0" cy="212.5" rx="32" ry="30.5"></ellipse>
                </g>
            </g>
        </g>
    </g>
</svg>