<?xml version="1.0" encoding="UTF-8"?>
<svg width="344px" height="295px" viewBox="0 0 344 295" version="1.1" xmlns="http://www.w3.org/2000/svg" xmlns:xlink="http://www.w3.org/1999/xlink">
    <!-- Generator: Sketch 50.2 (55047) - http://www.bohemiancoding.com/sketch -->
    <title>rackcard</title>
    <desc>Created with Sketch.</desc>
    <defs>
        <rect id="path-1" x="0" y="0" width="318" height="269" rx="10"></rect>
        <filter x="-5.7%" y="-6.3%" width="113.8%" height="116.4%" filterUnits="objectBoundingBox" id="filter-2">
            <feOffset dx="4" dy="5" in="SourceAlpha" result="shadowOffsetOuter1"></feOffset>
            <feGaussianBlur stdDeviation="6.5" in="shadowOffsetOuter1" result="shadowBlurOuter1"></feGaussianBlur>
            <feColorMatrix values="0 0 0 0 0.0431372549   0 0 0 0 0.0470588235   0 0 0 0 0.0705882353  0 0 0 0.4 0" type="matrix" in="shadowBlurOuter1"></feColorMatrix>
        </filter>
        <path d="M8.00013729,1.15488219 L76.5411209,11.0493076 C79.9850659,11.5464679 82.5409836,14.4978465 82.5409836,17.977491 L82.5409836,175.903164 C82.5409836,179.429327 79.9181617,182.40502 76.419905,182.847766 L7.87892144,191.522437 C4.04352365,192.007852 0.540812895,189.292154 0.055397988,185.456757 C0.0185026034,185.165236 3.58869946e-15,184.871681 3.55271368e-15,184.577835 L-1.77635684e-15,8.08306561 C-2.24980447e-15,4.21707236 3.13400675,1.08306561 7,1.08306561 C7.33466722,1.08306561 7.6689036,1.10706603 8.00013729,1.15488219 Z" id="path-3"></path>
        <linearGradient x1="49.9639554%" y1="-8.89069913%" x2="49.9639554%" y2="103.764728%" id="linearGradient-5">
            <stop stop-color="#FEBB00" offset="0%"></stop>
            <stop stop-color="#FF3693" offset="43%"></stop>
            <stop stop-color="#FF1A4E" offset="100%"></stop>
        </linearGradient>
    </defs>
    <g id="cartoon-design-dark" stroke="none" stroke-width="1" fill="none" fill-rule="evenodd">
        <g id="home" transform="translate(-1185.000000, -2574.000000)">
            <g id="rackcard" transform="translate(1194.000000, 2582.000000)">
                <g id="Rectangle-Copy-13">
                    <use fill="black" fill-opacity="1" filter="url(#filter-2)" xlink:href="#path-1"></use>
                    <use fill="#0D101B" fill-rule="evenodd" xlink:href="#path-1"></use>
                </g>
                <g id="Rectangle" transform="translate(118.163934, 31.647059)">
                    <mask id="mask-4" fill="white">
                        <use xlink:href="#path-3"></use>
                    </mask>
                    <use id="Mask" fill="#2F4368" xlink:href="#path-3"></use>
                    <path d="M10.0785048,9.33070761 L78.6194884,42.8941322 C81.0194991,44.0693791 82.5409836,46.5085361 82.5409836,49.1808491 L82.5409836,180.298589 C82.5409836,183.824751 79.9181617,186.800445 76.419905,187.243191 L7.87892144,195.917862 C4.04352365,196.403277 0.540812895,193.687579 0.055397988,189.852182 C0.0185026034,189.560661 4.47687787e-15,189.267106 4.4408921e-15,188.97326 L-2.66453526e-15,15.6174244 C-4.85482877e-15,11.7514312 3.13400675,8.61742442 7,8.61742442 C8.0671224,8.61742442 9.1201196,8.8614017 10.0785048,9.33070761 Z" fill="#286D92" mask="url(#mask-4)"></path>
                    <g id="Group-7-Copy-3" mask="url(#mask-4)" fill="#191B27" fill-rule="nonzero">
                        <g transform="translate(3.475410, 45.712418)">
                            <path d="M0.779363529,4.39542484 C0.348932937,4.39542484 0,3.41147547 0,2.19771242 C0,0.983949365 0.348932937,0 0.779363529,0 L52.2206365,0 C52.6510671,0 53,0.983949365 53,2.19771242 C53,3.41147547 52.6510671,4.39542484 52.2206365,4.39542484 L0.779363529,4.39542484 Z" id="Line"></path>
                            <path d="M0.779363529,14.9444444 C0.348932937,14.9444444 0,13.9604951 0,12.746732 C0,11.532969 0.348932937,10.5490196 0.779363529,10.5490196 L52.2206365,10.5490196 C52.6510671,10.5490196 53,11.532969 53,12.746732 C53,13.9604951 52.6510671,14.9444444 52.2206365,14.9444444 L0.779363529,14.9444444 Z" id="Line-Copy"></path>
                            <path d="M0.562163857,24.6143791 C0.251689332,24.6143791 0,23.6304297 0,22.4166667 C0,21.2029036 0.251689332,20.2189542 0.562163857,20.2189542 L37.6673443,20.2189542 C37.9778189,20.2189542 38.2295082,21.2029036 38.2295082,22.4166667 C38.2295082,23.6304297 37.9778189,24.6143791 37.6673443,24.6143791 L0.562163857,24.6143791 Z" id="Line-Copy-2"></path>
                        </g>
                    </g>
                    <g id="Group-7-Copy-5" mask="url(#mask-4)" fill="#191B27" fill-rule="nonzero">
                        <g transform="translate(3.475410, 78.238562)">
                            <path d="M0.779363529,4.39542484 C0.348932937,4.39542484 0,3.41147547 0,2.19771242 C0,0.983949365 0.348932937,0 0.779363529,0 L52.2206365,0 C52.6510671,0 53,0.983949365 53,2.19771242 C53,3.41147547 52.6510671,4.39542484 52.2206365,4.39542484 L0.779363529,4.39542484 Z" id="Line"></path>
                            <path d="M0.779363529,14.9444444 C0.348932937,14.9444444 0,13.9604951 0,12.746732 C0,11.532969 0.348932937,10.5490196 0.779363529,10.5490196 L52.2206365,10.5490196 C52.6510671,10.5490196 53,11.532969 53,12.746732 C53,13.9604951 52.6510671,14.9444444 52.2206365,14.9444444 L0.779363529,14.9444444 Z" id="Line-Copy"></path>
                            <path d="M0.562163857,24.6143791 C0.251689332,24.6143791 0,23.6304297 0,22.4166667 C0,21.2029036 0.251689332,20.2189542 0.562163857,20.2189542 L37.6673443,20.2189542 C37.9778189,20.2189542 38.2295082,21.2029036 38.2295082,22.4166667 C38.2295082,23.6304297 37.9778189,24.6143791 37.6673443,24.6143791 L0.562163857,24.6143791 Z" id="Line-Copy-2"></path>
                        </g>
                    </g>
                    <g id="Group-7-Copy-6" mask="url(#mask-4)" fill="#191B27" fill-rule="nonzero">
                        <g transform="translate(3.475410, 110.764706)">
                            <path d="M0.779363529,4.39542484 C0.348932937,4.39542484 0,3.41147547 0,2.19771242 C0,0.983949365 0.348932937,0 0.779363529,0 L52.2206365,0 C52.6510671,0 53,0.983949365 53,2.19771242 C53,3.41147547 52.6510671,4.39542484 52.2206365,4.39542484 L0.779363529,4.39542484 Z" id="Line"></path>
                            <path d="M0.779363529,14.9444444 C0.348932937,14.9444444 0,13.9604951 0,12.746732 C0,11.532969 0.348932937,10.5490196 0.779363529,10.5490196 L52.2206365,10.5490196 C52.6510671,10.5490196 53,11.532969 53,12.746732 C53,13.9604951 52.6510671,14.9444444 52.2206365,14.9444444 L0.779363529,14.9444444 Z" id="Line-Copy"></path>
                            <path d="M0.562163857,24.6143791 C0.251689332,24.6143791 0,23.6304297 0,22.4166667 C0,21.2029036 0.251689332,20.2189542 0.562163857,20.2189542 L37.6673443,20.2189542 C37.9778189,20.2189542 38.2295082,21.2029036 38.2295082,22.4166667 C38.2295082,23.6304297 37.9778189,24.6143791 37.6673443,24.6143791 L0.562163857,24.6143791 Z" id="Line-Copy-2"></path>
                        </g>
                    </g>
                    <ellipse id="Oval-2" fill="url(#linearGradient-5)" mask="url(#mask-4)" cx="89.9262295" cy="71.2058824" rx="26.5" ry="25.4934641"></ellipse>
                    <ellipse id="Oval-2-Copy" fill="#191B27" mask="url(#mask-4)" cx="0" cy="186.805556" rx="27.8032787" ry="26.8120915"></ellipse>
                </g>
            </g>
        </g>
    </g>
</svg>