<?xml version="1.0" encoding="UTF-8"?>
<svg width="67px" height="67px" viewBox="0 0 67 67" version="1.1" xmlns="http://www.w3.org/2000/svg" xmlns:xlink="http://www.w3.org/1999/xlink">
    <!-- Generator: Sketch 50.2 (55047) - http://www.bohemiancoding.com/sketch -->
    <title>shop-icon</title>
    <desc>Created with Sketch.</desc>
    <defs></defs>
    <g id="cartoon-design-dark" stroke="none" stroke-width="1" fill="none" fill-rule="evenodd">
        <g id="selection-page" transform="translate(-1444.000000, -622.000000)">
            <g id="Group" transform="translate(360.000000, 578.000000)">
                <g id="shop-icon" transform="translate(1084.000000, 44.000000)">
                    <rect id="Rectangle" fill="#8291E8" x="0" y="0" width="67" height="67" rx="33.5"></rect>
                    <path d="M47.1735557,38.8749954 L27.3251912,38.8749954 L27.7683424,41.0624949 L45.9424825,41.0624949 C46.9852588,41.0624949 47.7581496,42.0401021 47.527061,43.066723 L47.153514,44.7262148 C48.4190508,45.3464393 49.291676,46.6562047 49.291676,48.1718684 C49.291676,50.3048172 47.5638266,52.0303442 45.4442167,51.9995824 C43.4249506,51.9702563 41.7642678,50.315823 41.7097626,48.2776203 C41.6799709,47.1642514 42.1217679,46.1551306 42.847466,45.4374256 L28.6525457,45.4374256 C29.3551553,46.1323669 29.791671,47.1004038 29.791671,48.1718684 C29.791671,50.3465847 27.9955039,52.0978148 25.8192221,51.9957543 C23.8868257,51.9051782 22.3152472,50.3288113 22.2136847,48.378382 C22.1352784,46.8721519 22.920289,45.5445447 24.1129716,44.8519961 L19.3566631,21.3749991 L14.6250004,21.3749991 C13.7275262,21.3749991 13,20.6404777 13,19.7343744 L13,18.6406247 C13,17.7345213 13.7275262,17 14.6250004,17 L21.5670699,17 C22.3390128,17 23.0043828,17.5483104 23.1590964,18.3118161 L23.7797111,21.3749991 L50.3743326,21.3749991 C51.4171089,21.3749991 52.1899997,22.3526063 51.9589111,23.3792272 L48.7581342,37.5979742 C48.5900144,38.3449369 47.9322955,38.8749954 47.1735557,38.8749954 Z M40.6250071,28.4843726 L37.3750063,28.4843726 L37.3750063,25.7499981 C37.3750063,25.1459065 36.8900114,24.6562484 36.2916727,24.6562484 L35.2083391,24.6562484 C34.6100004,24.6562484 34.1250055,25.1459065 34.1250055,25.7499981 L34.1250055,28.4843726 L30.8750046,28.4843726 C30.2766659,28.4843726 29.791671,28.9740307 29.791671,29.5781223 L29.791671,30.6718721 C29.791671,31.2759638 30.2766659,31.7656219 30.8750046,31.7656219 L34.1250055,31.7656219 L34.1250055,34.4999963 C34.1250055,35.104088 34.6100004,35.5937461 35.2083391,35.5937461 L36.2916727,35.5937461 C36.8900114,35.5937461 37.3750063,35.104088 37.3750063,34.4999963 L37.3750063,31.7656219 L40.6250071,31.7656219 C41.2233458,31.7656219 41.7083407,31.2759638 41.7083407,30.6718721 L41.7083407,29.5781223 C41.7083407,28.9740307 41.2233458,28.4843726 40.6250071,28.4843726 Z" id="cart-plus" fill="#282F56" fill-rule="nonzero"></path>
                </g>
            </g>
        </g>
    </g>
</svg>